<svg width="24" height="24" viewBox="0 0 24 24" fill="none" xmlns="http://www.w3.org/2000/svg">
<path d="M22.95 14.1C22.8712 14.1591 22.7815 14.2021 22.6861 14.2265C22.5907 14.251 22.4914 14.2564 22.3939 14.2425C22.2964 14.2285 22.2026 14.1955 22.1179 14.1454C22.0331 14.0952 21.9591 14.0288 21.9 13.95C21.4479 13.3424 20.8595 12.8494 20.1821 12.5107C19.5048 12.172 18.7573 11.9971 18 12C17.8525 12 17.7083 11.9565 17.5854 11.8749C17.4625 11.7934 17.3664 11.6774 17.309 11.5416C17.2701 11.4493 17.25 11.3502 17.25 11.25C17.25 11.1498 17.2701 11.0507 17.309 10.9584C17.3664 10.8226 17.4625 10.7066 17.5854 10.625C17.7083 10.5435 17.8525 10.5 18 10.5C18.4208 10.5 18.8332 10.3819 19.1903 10.1593C19.5473 9.9366 19.8348 9.61827 20.0201 9.24041C20.2053 8.86256 20.2809 8.44033 20.2382 8.02168C20.1955 7.60304 20.0362 7.20476 19.7785 6.87208C19.5208 6.53941 19.1749 6.28568 18.7803 6.1397C18.3856 5.99373 17.9579 5.96137 17.5457 6.0463C17.1335 6.13122 16.7535 6.33003 16.4486 6.62015C16.1438 6.91026 15.9264 7.28004 15.8212 7.6875C15.7966 7.78291 15.7534 7.87254 15.6942 7.95127C15.6349 8.03 15.5607 8.09628 15.4758 8.14634C15.391 8.1964 15.2971 8.22924 15.1995 8.24301C15.1019 8.25677 15.0026 8.25118 14.9072 8.22656C14.8118 8.20194 14.7221 8.15876 14.6434 8.0995C14.5647 8.04024 14.4984 7.96605 14.4483 7.88117C14.3983 7.7963 14.3654 7.70239 14.3517 7.60481C14.3379 7.50724 14.3435 7.40791 14.3681 7.3125C14.5141 6.74748 14.79 6.22434 15.1738 5.7847C15.5576 5.34507 16.0387 5.00107 16.5788 4.78008C17.1189 4.55909 17.7031 4.46721 18.285 4.51175C18.8669 4.55629 19.4304 4.73602 19.9305 5.03664C20.4307 5.33725 20.8539 5.75047 21.1663 6.24339C21.4787 6.73632 21.6717 7.29535 21.73 7.87601C21.7884 8.45667 21.7104 9.04293 21.5022 9.58814C21.2941 10.1333 20.9616 10.6225 20.5312 11.0166C21.5511 11.4581 22.4376 12.1588 23.1028 13.0491C23.1619 13.1281 23.2048 13.2179 23.2291 13.3135C23.2534 13.4091 23.2586 13.5086 23.2444 13.6062C23.2302 13.7039 23.1969 13.7977 23.1464 13.8824C23.0959 13.9672 23.0291 14.0411 22.95 14.1ZM17.8987 19.875C17.953 19.9604 17.9894 20.0558 18.0058 20.1556C18.0223 20.2554 18.0183 20.3575 17.9943 20.4558C17.9702 20.554 17.9265 20.6464 17.8658 20.7273C17.8051 20.8082 17.7287 20.8761 17.6411 20.9267C17.5536 20.9773 17.4566 21.0097 17.3562 21.0219C17.2558 21.0341 17.154 21.0258 17.0568 20.9977C16.9597 20.9695 16.8692 20.9219 16.7909 20.8579C16.7126 20.7938 16.6481 20.7146 16.6012 20.625C16.1288 19.825 15.4559 19.162 14.649 18.7014C13.8421 18.2409 12.9291 17.9986 12 17.9986C11.0709 17.9986 10.1579 18.2409 9.35096 18.7014C8.54406 19.162 7.87119 19.825 7.39873 20.625C7.35184 20.7146 7.28731 20.7938 7.20901 20.8579C7.13072 20.9219 7.04028 20.9695 6.94313 20.9977C6.84599 21.0258 6.74414 21.0341 6.64373 21.0219C6.54331 21.0097 6.44641 20.9773 6.35883 20.9267C6.27126 20.8761 6.19483 20.8082 6.13414 20.7273C6.07346 20.6464 6.02977 20.554 6.0057 20.4558C5.98164 20.3575 5.97769 20.2554 5.99411 20.1556C6.01053 20.0558 6.04696 19.9604 6.10123 19.875C6.82835 18.6257 7.93704 17.6425 9.26435 17.07C8.51747 16.4982 7.96857 15.7066 7.69479 14.8067C7.42102 13.9068 7.43613 12.9437 7.73802 12.0528C8.03991 11.1619 8.61339 10.388 9.37786 9.83988C10.1423 9.29177 11.0593 8.99699 12 8.99699C12.9406 8.99699 13.8576 9.29177 14.6221 9.83988C15.3866 10.388 15.96 11.1619 16.2619 12.0528C16.5638 12.9437 16.5789 13.9068 16.3052 14.8067C16.0314 15.7066 15.4825 16.4982 14.7356 17.07C16.0629 17.6425 17.1716 18.6257 17.8987 19.875ZM12 16.5C12.5933 16.5 13.1733 16.3241 13.6667 15.9944C14.16 15.6648 14.5446 15.1962 14.7716 14.648C14.9987 14.0999 15.0581 13.4967 14.9423 12.9147C14.8266 12.3328 14.5409 11.7982 14.1213 11.3787C13.7017 10.9591 13.1672 10.6734 12.5852 10.5576C12.0033 10.4419 11.4001 10.5013 10.8519 10.7284C10.3038 10.9554 9.83521 11.3399 9.50557 11.8333C9.17593 12.3266 8.99998 12.9067 8.99998 13.5C8.99998 14.2956 9.31605 15.0587 9.87866 15.6213C10.4413 16.1839 11.2043 16.5 12 16.5ZM6.74998 11.25C6.74998 11.0511 6.67096 10.8603 6.53031 10.7197C6.38966 10.579 6.19889 10.5 5.99998 10.5C5.57916 10.5 5.16679 10.3819 4.8097 10.1593C4.45261 9.9366 4.16512 9.61827 3.97988 9.24041C3.79465 8.86256 3.71909 8.44033 3.76179 8.02168C3.80449 7.60304 3.96374 7.20476 4.22145 6.87208C4.47917 6.53941 4.82501 6.28568 5.2197 6.1397C5.61439 5.99373 6.0421 5.96137 6.45426 6.0463C6.86642 6.13122 7.2465 6.33003 7.55133 6.62015C7.85616 6.91026 8.07352 7.28004 8.17873 7.6875C8.22846 7.8802 8.3527 8.04525 8.52412 8.14634C8.69554 8.24743 8.90009 8.27629 9.09279 8.22656C9.28549 8.17683 9.45054 8.05259 9.55163 7.88117C9.65273 7.70975 9.68158 7.5052 9.63185 7.3125C9.48583 6.74748 9.20996 6.22434 8.82618 5.7847C8.4424 5.34507 7.96131 5.00107 7.42119 4.78008C6.88106 4.55909 6.29682 4.46721 5.71494 4.51175C5.13306 4.55629 4.56961 4.73602 4.06941 5.03664C3.56921 5.33725 3.14608 5.75047 2.83369 6.24339C2.52129 6.73632 2.32825 7.29535 2.26992 7.87601C2.21159 8.45667 2.28959 9.04293 2.49771 9.58814C2.70583 10.1333 3.03832 10.6225 3.46873 11.0166C2.44993 11.4585 1.5644 12.1592 0.899979 13.0491C0.780508 13.2082 0.729143 13.4083 0.757186 13.6053C0.785228 13.8023 0.890381 13.9801 1.04951 14.0995C1.20864 14.219 1.40871 14.2704 1.60571 14.2423C1.80271 14.2143 1.98051 14.1091 2.09998 13.95C2.55203 13.3424 3.14043 12.8494 3.81781 12.5107C4.4952 12.172 5.24264 11.9971 5.99998 12C6.19889 12 6.38966 11.921 6.53031 11.7803C6.67096 11.6397 6.74998 11.4489 6.74998 11.25Z" fill="black"/>
</svg>
