<svg width="24" height="24" viewBox="0 0 24 24" fill="none" xmlns="http://www.w3.org/2000/svg">
<path d="M12 7.5C11.11 7.5 10.24 7.76392 9.49993 8.25839C8.75991 8.75285 8.18313 9.45566 7.84254 10.2779C7.50194 11.1002 7.41283 12.005 7.58646 12.8779C7.7601 13.7508 8.18868 14.5526 8.81801 15.182C9.44735 15.8113 10.2492 16.2399 11.1221 16.4135C11.995 16.5872 12.8998 16.4981 13.7221 16.1575C14.5443 15.8169 15.2471 15.2401 15.7416 14.5001C16.2361 13.76 16.5 12.89 16.5 12C16.4988 10.8069 16.0243 9.66304 15.1806 8.81939C14.337 7.97575 13.1931 7.50124 12 7.5ZM12 15C11.4067 15 10.8266 14.8241 10.3333 14.4944C9.83994 14.1648 9.45542 13.6962 9.22836 13.1481C9.00129 12.5999 8.94188 11.9967 9.05764 11.4147C9.17339 10.8328 9.45912 10.2982 9.87867 9.87868C10.2982 9.45912 10.8328 9.1734 11.4147 9.05764C11.9967 8.94189 12.5999 9.0013 13.148 9.22836C13.6962 9.45542 14.1648 9.83994 14.4944 10.3333C14.824 10.8266 15 11.4067 15 12C15 12.7956 14.6839 13.5587 14.1213 14.1213C13.5587 14.6839 12.7956 15 12 15ZM22.3069 10.0509C22.286 9.94532 22.2426 9.84544 22.1797 9.75809C22.1167 9.67074 22.0357 9.59795 21.9422 9.54469L19.1456 7.95094L19.1344 4.79906C19.134 4.69051 19.1101 4.58333 19.0643 4.48492C19.0185 4.38651 18.9519 4.29921 18.8691 4.22906C17.8546 3.37097 16.6864 2.71337 15.4266 2.29125C15.3273 2.25767 15.2222 2.24524 15.1179 2.25477C15.0136 2.26429 14.9124 2.29556 14.8209 2.34656L12 3.92344L9.17624 2.34375C9.0847 2.29246 8.98341 2.26096 8.87893 2.25127C8.77445 2.24158 8.6691 2.25392 8.56968 2.2875C7.31076 2.71271 6.14389 3.37281 5.13093 4.23281C5.04822 4.30286 4.98166 4.39 4.93586 4.48824C4.89006 4.58648 4.8661 4.69348 4.86562 4.80188L4.85156 7.95656L2.055 9.55031C1.96143 9.60358 1.88044 9.67636 1.81751 9.76372C1.75458 9.85107 1.7112 9.95095 1.69031 10.0566C1.43437 11.3427 1.43437 12.6667 1.69031 13.9528C1.7112 14.0584 1.75458 14.1583 1.81751 14.2457C1.88044 14.333 1.96143 14.4058 2.055 14.4591L4.85156 16.0528L4.86281 19.2047C4.86315 19.3132 4.88705 19.4204 4.93285 19.5188C4.97866 19.6172 5.04528 19.7045 5.12812 19.7747C6.14256 20.6328 7.31077 21.2904 8.57062 21.7125C8.66983 21.7461 8.77498 21.7585 8.87929 21.749C8.9836 21.7395 9.08476 21.7082 9.17624 21.6572L12 20.0766L14.8237 21.6563C14.9355 21.7185 15.0615 21.7508 15.1894 21.75C15.2713 21.75 15.3526 21.7367 15.4303 21.7106C16.6891 21.286 17.8559 20.6265 18.8691 19.7672C18.9518 19.6971 19.0183 19.61 19.0641 19.5118C19.1099 19.4135 19.1339 19.3065 19.1344 19.1981L19.1484 16.0434L21.945 14.4497C22.0386 14.3964 22.1196 14.3236 22.1825 14.2363C22.2454 14.1489 22.2888 14.0491 22.3097 13.9434C22.5642 12.6583 22.5632 11.3357 22.3069 10.0509ZM20.9006 13.3238L18.2222 14.8472C18.1048 14.9139 18.0077 15.0111 17.9409 15.1284C17.8866 15.2222 17.8294 15.3216 17.7712 15.4153C17.6968 15.5335 17.6572 15.6703 17.6569 15.81L17.6428 18.8334C16.9229 19.3988 16.1208 19.8509 15.2644 20.1741L12.5625 18.6684C12.4503 18.6064 12.3241 18.5741 12.1959 18.5747H12.1781C12.0647 18.5747 11.9503 18.5747 11.8369 18.5747C11.7027 18.5713 11.5701 18.6037 11.4525 18.6684L8.74874 20.1778C7.89047 19.8571 7.0862 19.4072 6.36375 18.8438L6.35343 15.825C6.35297 15.685 6.31335 15.548 6.23906 15.4294C6.18093 15.3356 6.12375 15.2419 6.07031 15.1425C6.00405 15.0233 5.90689 14.9242 5.78906 14.8556L3.10781 13.3284C2.96906 12.4508 2.96906 11.5567 3.10781 10.6791L5.78156 9.15281C5.89891 9.08608 5.99608 8.98892 6.06281 8.87156C6.11718 8.77781 6.17437 8.67844 6.2325 8.58469C6.3069 8.46646 6.34653 8.32969 6.34687 8.19L6.36093 5.16656C7.08087 4.6012 7.88293 4.14911 8.73937 3.82594L11.4375 5.33156C11.5549 5.39665 11.6877 5.42903 11.8219 5.42531C11.9353 5.42531 12.0497 5.42531 12.1631 5.42531C12.2973 5.42866 12.4299 5.39631 12.5475 5.33156L15.2512 3.82219C16.1095 4.14288 16.9138 4.59275 17.6362 5.15625L17.6466 8.175C17.647 8.31496 17.6866 8.45201 17.7609 8.57063C17.8191 8.66438 17.8762 8.75813 17.9297 8.8575C17.9959 8.97667 18.0931 9.07577 18.2109 9.14438L20.8922 10.6716C21.0328 11.5499 21.0344 12.4449 20.8969 13.3238H20.9006Z" fill="black"/>
</svg>
