<svg width="686" height="686" viewBox="0 0 686 686" fill="none" xmlns="http://www.w3.org/2000/svg">
<path fill-rule="evenodd" clip-rule="evenodd" d="M275.016 521.977C370.831 548.923 417.453 445.521 499.549 453.388C544.488 457.694 634.064 479.52 633.864 320.529C633.364 217.883 538.753 192.18 441.19 244.82C412.482 256.047 389.816 252.568 365.206 241.413C340.597 230.257 308.947 180.456 249.295 170.211C69.784 139.381 -83.8114 421.071 275.016 521.977Z" fill="#3F83DC"/>
<path fill-rule="evenodd" clip-rule="evenodd" d="M139.418 104.971C138.634 103.859 137.363 103.218 136.005 103.383C134.615 103.552 133.453 104.519 133.03 105.853L132.917 106.21C132.831 106.472 132.73 106.774 132.61 107.113C132.269 108.081 131.856 109.156 131.367 110.311C129.979 113.596 128.269 116.876 126.229 119.925C121.826 126.507 116.522 131.089 110.304 132.853C109.332 133.128 108.768 134.14 109.044 135.112C109.184 135.605 118.265 140.144 127.536 138.999C136.528 137.89 145.718 131.11 145.792 130.649L145.906 129.688L145.938 129.366C146.582 122.382 145.36 114.492 140.656 106.849C140.265 106.214 139.852 105.589 139.418 104.971Z" fill="#BFBFBF"/>
<path fill-rule="evenodd" clip-rule="evenodd" d="M158.131 107.002L158.084 107.371C157.432 112.1 155.607 118.685 152.305 123.653C148.241 129.768 142.505 134.445 136.741 137.459C128.425 141.807 119.374 142.603 110.462 136.955L110.068 136.701C105.385 133.638 101.831 132.164 96.9548 133.38C92.0778 134.597 89.7097 138.149 87.6047 141.445L87.5082 141.584C87.1707 142.035 86.6771 142.347 86.1208 142.456L76.875 143.921L80.242 148.103C81.2553 149.372 81.9757 150.286 82.403 150.846L86.1037 155.722C97.1331 170.187 109.003 183.999 132.149 179.218L132.934 179.049C139.066 177.686 144.207 181.347 150.658 186.743L152.036 187.903C153.742 189.348 158.901 193.894 161.012 196.084L161.701 196.808L162.338 197.493C162.471 197.637 162.597 197.776 162.717 197.909L163.375 198.651L163.779 198.174C168.145 192.918 170.88 184.911 172.296 178.308C172.83 175.812 173.137 173.423 173.265 171.219L173.281 170.932C173.314 170.287 173.329 169.724 173.331 169.255V168.906L172.672 169.1C165.038 171.265 156.448 171.48 148.067 170.513C146.043 170.28 168.252 152.291 163.693 128.995C162.654 123.686 161.995 116.588 160.18 111.769C159.608 110.249 159.015 108.86 158.427 107.618L158.131 107.002Z" fill="#F5F5DC"/>
<path fill-rule="evenodd" clip-rule="evenodd" d="M503.675 266.615L484.674 275.853C480.119 279.728 479.344 285.492 482.35 293.144C483.404 295.83 486.043 302.225 486.043 299.714C486.043 298.929 503.675 287.403 507.059 288.531C510.186 289.574 504.567 280.174 502.992 275.853L503.675 266.379L504.198 265.436" fill="#E7EAEE"/>
<path fill-rule="evenodd" clip-rule="evenodd" d="M478.324 273.549C479.587 273.549 472.43 276.915 472.799 283.122C473.168 289.328 478.018 300.767 476.839 301.218C475.659 301.669 473.423 298.334 472.972 297.155C470.167 289.814 469.636 286.82 469.736 282.538C469.867 276.934 472.814 273.549 478.324 273.549Z" fill="#E7EAEE"/>
<path d="M510.166 290.857C512.894 290.857 515.105 285.862 515.105 279.699C515.105 273.537 512.894 268.541 510.166 268.541C507.438 268.541 505.227 273.537 505.227 279.699C505.227 285.862 507.438 290.857 510.166 290.857Z" fill="#E7EAEE"/>
<path fill-rule="evenodd" clip-rule="evenodd" d="M165.159 387.284C165.159 382.739 164.679 379.567 165.159 376.06C166.724 364.623 172.857 358.772 190.535 350.685C237.878 331.549 237.752 329.065 328.451 293.999C352.437 284.773 403.004 306.873 424.994 297.611C439.654 291.437 453.362 286.852 465.474 280.729C465.508 280.948 464.247 291.414 464.247 291.414C464.247 291.414 434.349 307.203 414.571 310.55C393.556 314.107 364.693 297.611 335.873 305.725C291.983 318.08 190.842 356.913 178.877 366.645C169.476 374.292 165.159 387.284 165.159 387.284Z" fill="#E7EAEE"/>
<path fill-rule="evenodd" clip-rule="evenodd" d="M139.418 104.971C138.634 103.859 137.363 103.218 136.005 103.383C134.615 103.552 133.453 104.519 133.03 105.853L132.917 106.21C132.831 106.472 132.73 106.774 132.61 107.113C132.269 108.081 131.856 109.156 131.367 110.311C129.979 113.596 128.269 116.876 126.229 119.925C121.826 126.507 116.522 131.089 110.304 132.853C109.332 133.128 108.768 134.14 109.044 135.112C109.319 136.084 124.427 129.199 129.27 121.959C131.449 118.7 133.264 115.221 134.737 111.736C135.181 110.684 135.568 109.694 135.899 108.78L136.061 108.329C136.19 107.961 136.302 107.631 136.397 107.339C136.421 107.132 136.443 107.062 136.464 107.131C146.943 114.3 142.823 132.093 143.83 132.18C144.791 132.262 145.642 131.586 145.792 130.649L145.906 129.688L145.938 129.366C146.582 122.382 145.36 114.492 140.656 106.849C140.265 106.214 139.852 105.589 139.418 104.971Z" fill="#E7EAEE"/>
<path fill-rule="evenodd" clip-rule="evenodd" d="M161.24 104.918L161.471 105.331L161.753 105.859C161.923 106.185 162.113 106.563 162.321 106.99C163.04 108.469 163.765 110.143 164.46 111.988C166.417 117.184 167.785 122.791 168.252 128.633C168.886 136.56 167.742 144.041 164.843 150.847L164.595 151.419C162.241 156.736 158.811 161.607 154.358 165.978L153.917 166.405L154.292 166.423C160.704 166.693 167.046 166.118 172.62 164.341C173.815 163.96 175.119 164.157 176.149 164.873C177.177 165.588 177.815 166.739 177.879 167.989L177.894 168.377L177.903 168.89V169.087C177.903 169.803 177.882 170.606 177.831 171.485C177.691 173.913 177.354 176.533 176.768 179.268C175.111 186.994 171.8 194.23 166.388 200.327C165.669 201.136 164.659 201.621 163.585 201.679L163.337 201.684C162.19 201.663 161.142 201.189 160.397 200.379L159.852 199.745L159.585 199.442L159.017 198.811L158.395 198.139C158.178 197.91 157.953 197.673 157.72 197.431C155.733 195.37 153.54 193.328 151.21 191.448C144.754 186.238 138.526 183.297 133.208 183.616C124.508 184.138 117.303 183.732 110.619 181.856C101.978 179.432 95.1923 174.675 90.7022 167.102L90.4505 166.67C88.1258 162.616 84.6923 157.946 80.6422 153.085C79.3906 151.583 78.1561 150.154 76.9793 148.833L76.4787 148.273C75.677 147.382 75.0202 146.671 74.7449 146.382C73.7285 145.311 73.3753 143.774 73.8194 142.369L73.8846 142.179C74.3724 140.866 75.5068 139.893 76.8895 139.62L84.3041 138.154L84.3904 138.03C87.0435 134.259 90.8315 131.065 95.8636 129.778C101.112 128.436 106.635 129.603 112.197 133.132L112.585 133.382C120.097 138.295 127.542 138.024 134.622 134.323C139.678 131.679 144.498 127.188 148.15 121.694C151.546 116.585 153.564 111.123 153.708 106.812C153.768 105.011 155.011 103.465 156.758 103.024C158.506 102.581 160.336 103.356 161.24 104.918ZM158.131 107.004L158.084 107.373C157.433 112.102 155.607 118.687 152.306 123.654C148.241 129.77 142.505 134.446 136.741 137.461C128.426 141.808 119.374 142.604 110.462 136.956L110.068 136.703C105.385 133.64 101.831 132.165 96.9548 133.382C92.0788 134.599 89.7099 138.151 87.6049 141.446L87.5084 141.585C87.1709 142.036 86.6774 142.348 86.121 142.458L76.8752 143.922L80.2422 148.105C81.2556 149.374 81.9759 150.287 82.4031 150.847L86.104 155.723C97.1332 170.189 109.003 184 132.149 179.219L132.934 179.051C139.066 177.687 144.207 181.349 150.658 186.744L152.036 187.905C153.742 189.349 158.901 193.896 161.012 196.086L161.701 196.809L162.338 197.494C162.471 197.639 162.597 197.778 162.718 197.91L163.375 198.652L163.779 198.176C168.145 192.919 170.88 184.913 172.296 178.309C172.831 175.814 173.137 173.425 173.265 171.22L173.281 170.933C173.314 170.288 173.329 169.726 173.331 169.257V168.907L172.672 169.101C165.038 171.266 156.448 171.481 148.067 170.514C146.043 170.281 168.252 152.292 163.693 128.997C162.654 123.688 161.995 116.589 160.18 111.771C159.609 110.251 159.015 108.861 158.427 107.619L158.131 107.004Z" fill="#E7EAEE"/>
<path fill-rule="evenodd" clip-rule="evenodd" d="M100.156 148.176C101.922 148.176 103.358 146.74 103.358 144.975C103.358 143.209 101.922 141.773 100.156 141.773C98.3911 141.773 96.9551 143.209 96.9551 144.975C96.9551 146.74 98.3911 148.176 100.156 148.176Z" fill="#00160A"/>
<path d="M102.9 160.982C105.678 160.982 107.93 159.139 107.93 156.866C107.93 154.593 105.678 152.75 102.9 152.75C100.121 152.75 97.8691 154.593 97.8691 156.866C97.8691 159.139 100.121 160.982 102.9 160.982Z" fill="#FFB61D"/>
<path d="M102.9 160.982C105.678 160.982 107.93 159.139 107.93 156.866C107.93 154.593 105.678 152.75 102.9 152.75C100.121 152.75 97.8691 154.593 97.8691 156.866C97.8691 159.139 100.121 160.982 102.9 160.982Z" fill="#FFB61D"/>
<path fill-rule="evenodd" clip-rule="evenodd" d="M161.24 104.918L161.471 105.331L161.752 105.859C161.923 106.185 162.113 106.563 162.32 106.99C163.039 108.469 163.765 110.143 164.46 111.988C166.417 117.184 167.785 122.791 168.252 128.633C168.886 136.56 167.742 144.041 164.843 150.847L164.595 151.419C162.241 156.736 158.811 161.607 154.357 165.978L153.916 166.405L154.291 166.423C160.704 166.693 167.045 166.118 172.62 164.341C173.815 163.96 175.118 164.157 176.148 164.873C177.176 165.588 177.815 166.739 177.879 167.989L177.894 168.377L177.903 168.89V169.087C177.903 169.803 177.882 170.606 177.83 171.485C177.69 173.913 177.353 176.533 176.768 179.268C175.111 186.994 171.8 194.23 166.388 200.327C165.669 201.136 164.658 201.621 163.584 201.679L163.337 201.684C162.189 201.663 161.141 201.189 160.397 200.379L159.852 199.745L159.585 199.442L159.017 198.811L158.394 198.139C158.178 197.91 157.953 197.673 157.72 197.431C155.732 195.37 153.54 193.328 151.21 191.448C144.753 186.238 138.526 183.297 133.207 183.616C124.507 184.138 117.303 183.732 110.619 181.856C101.977 179.432 95.1921 174.675 90.7018 167.102L90.4502 166.67C88.1254 162.616 84.6919 157.946 80.6419 153.085C79.3903 151.583 78.1557 150.154 76.979 148.833L76.4784 148.273C75.6767 147.382 75.0198 146.671 74.7446 146.382C73.7282 145.311 73.375 143.774 73.819 142.369L73.8843 142.179C74.372 140.866 75.5065 139.893 76.8892 139.62L84.3038 138.154L84.3901 138.03C87.0431 134.259 90.8311 131.065 95.8625 129.778C100.815 128.511 106.014 129.48 111.257 132.558C117.065 130.611 122.053 126.169 126.229 119.926C128.269 116.876 129.979 113.596 131.367 110.312C131.856 109.156 132.269 108.082 132.61 107.113C132.73 106.775 132.832 106.473 132.918 106.21L133.03 105.853C133.453 104.519 134.615 103.553 136.005 103.384C137.363 103.218 138.634 103.859 139.418 104.972C139.853 105.589 140.266 106.215 140.657 106.85C144.307 112.782 145.861 118.864 146.072 124.555C146.798 123.638 147.493 122.682 148.149 121.694C151.545 116.585 153.563 111.123 153.707 106.812C153.767 105.011 155.01 103.465 156.757 103.024C158.506 102.581 160.336 103.356 161.24 104.918ZM134.622 134.323C127.745 137.917 120.523 138.277 113.23 133.791C118.14 131.521 126.018 126.821 129.27 121.96C131.449 118.701 133.264 115.221 134.737 111.736C135.181 110.685 135.568 109.695 135.9 108.78L136.061 108.33C136.19 107.961 136.302 107.631 136.397 107.34C136.421 107.132 136.443 107.062 136.464 107.131C143.43 111.897 143.945 121.356 143.803 127.189C141.003 130.178 137.861 132.629 134.622 134.323ZM136.741 137.461C139.531 136.001 142.315 134.153 144.906 131.939C145.105 131.824 145.281 131.67 145.424 131.489C147.985 129.231 150.34 126.61 152.305 123.654C155.607 118.687 157.432 112.102 158.084 107.373L158.131 107.004L158.427 107.619C159.015 108.861 159.607 110.251 160.18 111.771C161.443 115.124 162.147 119.581 162.808 123.771V123.772C163.096 125.602 163.377 127.382 163.693 128.997C167.187 146.852 154.956 161.589 149.964 167.604C148.443 169.437 147.594 170.459 148.067 170.514C156.448 171.481 165.038 171.266 172.672 169.101L173.331 168.907V169.257C173.328 169.726 173.314 170.288 173.281 170.933L173.265 171.22C173.137 173.425 172.83 175.814 172.296 178.309C170.88 184.913 168.145 192.919 163.779 198.176L163.375 198.652L162.716 197.91C162.597 197.778 162.47 197.639 162.338 197.494L161.701 196.809L161.012 196.086C158.9 193.896 153.742 189.349 152.036 187.905L150.657 186.744C144.207 181.349 139.066 177.687 132.934 179.051L132.149 179.219C109.003 184 97.133 170.189 86.1036 155.723L82.4028 150.847C81.9756 150.287 81.2552 149.374 80.2419 148.105L76.8749 143.922L86.1207 142.458C86.677 142.348 87.1705 142.036 87.5081 141.585L87.6045 141.446C89.7096 138.151 92.0776 134.599 96.9546 133.382C101.831 132.165 105.385 133.64 110.068 136.703L110.462 136.956C119.374 142.604 128.425 141.808 136.741 137.461ZM502.708 263.741C504.506 262.866 507.732 264.561 505.86 267.29C503.028 271.419 506.175 281.009 508.092 286.849V286.85V286.851C508.979 289.552 509.602 291.451 509.248 291.636C508.128 292.221 506.747 291.788 506.162 290.669C502.994 284.608 501.175 279.795 500.721 276.136C500.496 274.316 500.446 272.555 500.573 270.856L500.591 270.66L485.947 277.778L485.761 277.948C482.456 281.049 481.001 284.649 483.421 291.026L483.563 291.397C486.189 298.083 490.635 302.879 495.26 302.679L495.621 302.661C505.899 302.454 512.042 299.362 514.235 295.595C516.992 290.86 517.74 285.396 512.597 274.763C512.047 273.627 509.226 265.765 513.217 269.823C517.207 273.882 522.77 291.817 519.172 297.997C516.168 303.156 508.46 305.742 497.897 306.244C497.958 306.513 497.972 306.799 497.93 307.088C496.929 313.878 493.829 318.15 488.647 319.386C484.684 320.33 480.424 319.079 476.522 316.063C462.814 319.006 449.545 323.492 436.713 329.523L434.812 330.423C428.265 333.55 424.511 335.646 421.77 337.684C420.162 338.879 418.834 340.104 417.406 341.679L417.176 341.941C416.483 342.744 414.973 344.587 413.256 346.686L413.253 346.689L413.251 346.692L413.25 346.693L413.249 346.695L413.244 346.701L413.241 346.705C410.955 349.495 408.306 352.732 406.724 354.564L405.959 355.444C399.519 362.823 391.402 371.195 380.246 381.716L379.933 382.003C375.751 385.741 364.636 392.059 350.775 398.432C389.027 397.073 416.611 382.473 433.788 354.607C434.543 353.38 436.231 353.15 437.288 354.128C466.826 381.484 501.05 394.144 540.093 392.167C579.24 390.184 607.968 380.01 626.365 361.743C627.26 360.853 628.708 360.858 629.598 361.755C630.488 362.65 630.482 364.098 629.587 364.988C610.288 384.151 569.316 398.531 529.136 400.565C490.06 402.543 466.745 386.443 436.933 359.98L436.205 359.329L435.944 359.73C417.062 388.343 376.042 409.213 335.106 409.509L333.823 409.513C291.952 409.513 267.804 389.239 239.556 361.528L239.335 361.311L239.235 361.397L238.497 362.018L237.424 362.92L236.767 363.473C210.297 385.748 190.547 402.37 160.837 406.615L159.889 406.748C126.391 413.525 75.5868 395.472 67.7796 386.623C60.6262 378.515 68.9699 383.555 71.2605 384.939C71.4697 385.065 71.6286 385.161 71.7204 385.213C93.8914 397.907 119.455 402.741 150.125 398.558C154.357 397.98 158.564 397.216 162.743 396.265L162.694 395.814C161.355 383.096 161.347 377.536 163.277 371.156C165.901 362.477 172.274 355.883 183.736 350.64L186.893 349.244C201.052 343.004 212.297 338.319 223.961 333.767L224.815 333.434C226.123 332.925 227.448 332.413 228.801 331.894L230.126 331.389C230.606 331.219 236.854 328.743 246.352 324.977C268.26 316.291 307.46 300.751 333.032 290.863C338.564 288.736 345.262 288.029 353.478 288.453L354.185 288.493C360.34 288.855 366.393 289.69 376.317 291.407L385.036 292.934C394.772 294.619 399.49 295.284 404.998 295.676C406.729 295.8 408.375 295.953 409.939 296.098C415.731 296.636 420.393 297.069 424.106 295.505C427.401 294.118 430.631 292.778 433.795 291.465L433.796 291.464L433.821 291.454H433.822C444.201 287.149 453.881 283.134 462.865 278.667C463.482 274.672 465.056 271.722 467.523 269.779C471.328 266.783 476.714 266.733 481.386 268.549C482.564 269.007 483.146 270.333 482.689 271.509C482.541 271.891 481.589 271.715 480.243 271.467C477.428 270.948 472.886 270.11 470.352 273.372C467.533 277.003 466.596 282.563 469.093 293.511C470.902 301.446 482.632 314.937 487.586 314.937C493.11 314.937 494.401 309.575 495.134 306.534L495.18 306.343C488.61 306.513 483.619 302.356 480.379 294.379L480.221 293.983C476.889 285.499 477.803 278.698 483.191 274.113C483.289 274.03 483.394 273.955 483.504 273.89L483.674 273.799L502.708 263.741ZM472.303 311.928C472.071 311.648 471.843 311.361 471.617 311.068C471.53 310.976 471.448 310.884 471.377 310.798C471.169 310.544 470.955 310.287 470.737 310.026C468.965 307.897 466.912 305.43 465.304 301.874L465.071 301.356C462.491 295.578 462.184 289.087 462.342 283.735L462.366 283.114L462.23 283.183C451.573 288.457 439.98 293.748 427.452 299.056L425.882 299.72C420.517 301.979 413.818 303.575 405.329 303.027L404.673 302.982C398.873 302.568 393.995 301.875 383.767 300.1L376.13 298.761C354.602 295.033 343.829 294.452 334.952 297.771C334.952 297.771 202.569 347.57 185.614 354.809C175.303 359.526 171.805 363.965 167.54 371.156C165.334 374.876 165.557 385.137 165.713 392.264V392.266C165.739 393.461 165.762 394.567 165.773 395.541C190.804 389.281 214.865 376.266 237.972 356.47C238.883 355.69 240.243 355.745 241.086 356.598C242.956 358.488 244.856 360.314 246.788 362.076L342.118 322.248C342.38 322.139 342.65 322.082 342.917 322.072C343.635 321.733 344.41 321.454 345.24 321.232C353.553 319.022 360.191 322.618 364.777 331.468L373.087 325.407C374.313 324.513 376.053 325.038 376.579 326.46C384.162 346.954 381.953 360.996 369.467 367.771C356.875 374.604 345.924 368.97 337.387 351.892C336.954 351.026 337.124 350.024 337.723 349.349C335.688 341.081 335.31 334.494 336.695 329.724L253.173 367.575C265.662 377.714 279.376 385.361 294.324 390.519C294.666 390.192 295.037 389.91 295.401 389.711C307.992 382.814 339.014 374.758 346.677 372.767C347.34 372.595 347.828 372.468 348.114 372.391C351.709 371.428 348.026 374.788 346.94 375.289L346.802 375.348L301.524 392.783C314.994 396.62 329.416 398.537 344.799 398.537C345.674 398.537 346.543 398.531 347.408 398.517L348.42 397.858H348.421L348.422 397.858L348.424 397.857C358.107 391.563 374.297 381.04 377.108 378.389L378.42 377.149C387.742 368.103 394.68 359.425 400.737 351.85C407.381 343.539 412.964 336.556 419.47 331.871C424.528 328.229 426.361 327.396 430.67 325.441C431.822 324.917 433.151 324.314 434.768 323.555C446.195 318.184 459.174 315.075 471.356 312.155L472.303 311.928ZM346.415 325.652C353.002 323.901 357.936 326.995 361.696 335.632L351.98 343.334L351.97 343.338L341.932 347.299L341.681 346.197C338.932 333.736 340.723 327.166 346.415 325.652ZM361.696 335.632L351.988 343.331C352.183 343.255 352.384 343.206 352.584 343.184C352.768 343.165 352.952 343.168 353.131 343.192C353.557 343.249 353.962 343.427 354.295 343.705C354.514 343.888 354.7 344.113 354.841 344.375C357.133 348.501 358.904 349.484 360.702 348.475C362.607 347.407 363.205 343.393 361.814 336.221L361.696 335.632ZM235.744 429.523C236.807 428.839 244.137 425.263 237.609 431.986C231.081 438.707 180.241 467.227 152.797 468.806C126.346 470.328 102.861 459.282 82.4274 444.824L81.7501 444.341L81.6151 444.515C80.7106 445.662 79.7812 446.703 78.8261 447.636L78.4152 448.031C76.6844 449.655 73.689 451.494 69.3612 453.632C68.2289 454.191 64.228 454.706 66.2983 452.594C68.3686 450.483 72.8998 447.443 75.5388 445.7C77.2634 444.561 77.808 443.23 78.3484 441.908C78.6349 441.207 78.9202 440.509 79.3795 439.844C80.1171 438.778 81.5938 438.537 82.6319 439.315C102.776 454.412 126.306 462.46 152.797 460.936C179.396 459.405 206.868 448.103 235.744 429.523ZM392.197 444.102C393.125 443.246 393.125 437.136 392.197 437.992C381.923 447.473 360.413 455.812 333.87 457.339C307.293 458.869 286.399 454.69 271.145 444.881C270.083 444.198 264.824 442.392 267.985 445.568C271.145 448.744 306.665 465.315 334.132 463.734L334.955 463.685C362.02 462.033 381.1 454.342 392.197 444.102ZM373.436 331.323L373.298 330.912L366.414 335.935L366.54 336.645C367.925 344.743 366.98 350.035 363.141 352.347L362.94 352.464C358.937 354.708 355.17 353.123 352.02 348.511L351.881 348.306L342.624 352.046L342.838 352.434C349.914 365.203 357.757 368.755 366.987 363.911L367.285 363.751C376.555 358.722 378.838 348.456 373.757 332.318L373.436 331.323ZM103.357 144.975C103.357 146.74 101.921 148.176 100.156 148.176C98.3907 148.176 96.9546 146.74 96.9546 144.975C96.9546 143.21 98.3907 141.774 100.156 141.774C101.921 141.774 103.357 143.21 103.357 144.975Z" fill="#00160A"/>
</svg>
