<svg width="24" height="24" viewBox="0 0 24 24" fill="none" xmlns="http://www.w3.org/2000/svg">
<path d="M9.75003 13.125C9.75003 13.3475 9.68405 13.565 9.56043 13.75C9.43682 13.935 9.26112 14.0792 9.05555 14.1644C8.84998 14.2495 8.62378 14.2718 8.40555 14.2284C8.18732 14.185 7.98687 14.0778 7.82953 13.9205C7.6722 13.7632 7.56505 13.5627 7.52165 13.3445C7.47824 13.1262 7.50052 12.9001 7.58567 12.6945C7.67081 12.4889 7.81501 12.3132 8.00001 12.1896C8.18502 12.066 8.40253 12 8.62503 12C8.9234 12 9.20955 12.1185 9.42053 12.3295C9.6315 12.5405 9.75003 12.8266 9.75003 13.125ZM15.375 12C15.1525 12 14.935 12.066 14.75 12.1896C14.565 12.3132 14.4208 12.4889 14.3357 12.6945C14.2505 12.9001 14.2282 13.1262 14.2716 13.3445C14.3151 13.5627 14.4222 13.7632 14.5795 13.9205C14.7369 14.0778 14.9373 14.185 15.1556 14.2284C15.3738 14.2718 15.6 14.2495 15.8055 14.1644C16.0111 14.0792 16.1868 13.935 16.3104 13.75C16.434 13.565 16.5 13.3475 16.5 13.125C16.5 12.8266 16.3815 12.5405 16.1705 12.3295C15.9595 12.1185 15.6734 12 15.375 12ZM22.3547 18.0844L16.0735 20.8697C15.8846 20.9537 15.6806 20.9981 15.4739 21.0003C15.2672 21.0025 15.0622 20.9625 14.8716 20.8826C14.681 20.8027 14.5087 20.6846 14.3654 20.5357C14.2221 20.3868 14.1107 20.2101 14.0382 20.0166L13.2778 17.9541C12.8578 17.9822 12.4319 17.9966 12 17.9972C11.5682 17.9978 11.1422 17.9834 10.7222 17.9541L9.96191 20.0166C9.88924 20.21 9.77782 20.3866 9.63447 20.5354C9.49112 20.6843 9.31886 20.8023 9.12828 20.8822C8.93769 20.962 8.73279 21.0022 8.52615 21C8.3195 20.9979 8.11548 20.9535 7.92659 20.8697L1.64534 18.0844C1.32114 17.9426 1.0578 17.6904 0.902246 17.3726C0.746691 17.0548 0.709028 16.6921 0.795968 16.3491L3.56253 5.4375C3.63554 5.15373 3.78972 4.89741 4.00619 4.69992C4.22266 4.50244 4.49202 4.37236 4.78128 4.32563L8.1619 3.76969C8.53459 3.70975 8.91624 3.79056 9.23264 3.99641C9.54904 4.20226 9.77757 4.51844 9.87378 4.88344L10.1794 6.08719C10.775 6.02907 11.3819 6 12 6C12.6182 6 13.2244 6.02907 13.8188 6.08719L14.1244 4.88344C14.2204 4.51832 14.4489 4.20202 14.7654 3.99614C15.0818 3.79025 15.4636 3.70953 15.8363 3.76969L19.2188 4.32563C19.508 4.37236 19.7774 4.50244 19.9939 4.69992C20.2103 4.89741 20.3645 5.15373 20.4375 5.4375L23.206 16.3481C23.293 16.6915 23.2552 17.0546 23.0993 17.3726C22.9434 17.6907 22.6795 17.9429 22.3547 18.0844ZM21.75 16.7138L18.9816 5.8125C18.9816 5.8125 18.9816 5.8125 18.9741 5.8125L15.5935 5.25C15.591 5.2486 15.5883 5.24787 15.5855 5.24787C15.5827 5.24787 15.58 5.2486 15.5775 5.25L15.3122 6.29438C15.781 6.3825 16.2497 6.4875 16.7025 6.615C16.8811 6.66051 17.0366 6.77013 17.1395 6.92296C17.2423 7.07579 17.2854 7.26114 17.2603 7.44367C17.2353 7.62619 17.144 7.79311 17.0037 7.91261C16.8635 8.0321 16.6842 8.0958 16.5 8.09156C16.4316 8.09137 16.3635 8.08191 16.2975 8.06344C14.8969 7.68336 13.4513 7.49384 12 7.5C10.5488 7.49354 9.10325 7.68274 7.70253 8.0625C7.60684 8.09208 7.5062 8.1022 7.40654 8.09226C7.30688 8.08231 7.21023 8.05251 7.12227 8.0046C7.03432 7.9567 6.95685 7.89166 6.89444 7.81333C6.83203 7.735 6.78594 7.64496 6.75888 7.54853C6.73183 7.4521 6.72437 7.35123 6.73694 7.25187C6.7495 7.1525 6.78184 7.05666 6.83205 6.97C6.88225 6.88334 6.94931 6.80761 7.02925 6.74728C7.1092 6.68696 7.20042 6.64325 7.29753 6.61875C7.7494 6.49125 8.21441 6.38625 8.68691 6.29813L8.42159 5.25C8.42159 5.25 8.42159 5.25 8.41034 5.25L5.02597 5.80594C5.02321 5.80518 5.02029 5.80518 5.01753 5.80594L2.25003 16.7184L8.53128 19.5C8.53444 19.5017 8.53799 19.5026 8.54159 19.5026C8.5452 19.5026 8.54874 19.5017 8.55191 19.5L9.18753 17.7863C8.55068 17.6888 7.92019 17.5536 7.29941 17.3813C7.1145 17.3222 6.95971 17.1937 6.86757 17.0229C6.77542 16.852 6.75311 16.6521 6.80531 16.4651C6.85751 16.2782 6.98017 16.1187 7.14749 16.0203C7.31481 15.9219 7.51377 15.8922 7.70253 15.9375C9.10316 16.3177 10.5487 16.5069 12 16.5C13.4513 16.5069 14.8969 16.3177 16.2975 15.9375C16.4891 15.8838 16.6942 15.9084 16.8676 16.0059C17.0411 16.1034 17.1687 16.2658 17.2224 16.4573C17.2761 16.6489 17.2515 16.854 17.154 17.0274C17.0565 17.2009 16.8941 17.3285 16.7025 17.3822C16.0811 17.5543 15.45 17.6892 14.8125 17.7863L15.4453 19.5C15.4484 19.5016 15.4517 19.5025 15.4552 19.5025C15.4586 19.5025 15.462 19.5016 15.465 19.5L21.75 16.7138Z" fill="black"/>
</svg>
