<svg width="24" height="24" viewBox="0 0 24 24" fill="none" xmlns="http://www.w3.org/2000/svg">
<path d="M21.7172 18.2391L18.6056 3.44531C18.5654 3.25185 18.4873 3.06825 18.3759 2.90505C18.2645 2.74185 18.1219 2.60228 17.9564 2.49434C17.7909 2.38641 17.6057 2.31224 17.4114 2.2761C17.2171 2.23996 17.0176 2.24256 16.8244 2.28375L12.4359 3.22687C12.0478 3.31187 11.7089 3.54669 11.4929 3.88026C11.277 4.21383 11.2015 4.61917 11.2828 5.00812L14.3944 19.8019C14.4637 20.1394 14.6471 20.4428 14.9138 20.6609C15.1805 20.8791 15.5142 20.9989 15.8588 21C15.9653 20.9999 16.0715 20.9885 16.1756 20.9663L20.5641 20.0231C20.9527 19.9379 21.292 19.7026 21.5079 19.3685C21.7239 19.0343 21.7991 18.6284 21.7172 18.2391ZM12.75 4.70156C12.75 4.69594 12.75 4.69313 12.75 4.69313L17.1375 3.75563L17.4497 5.24344L13.0622 6.1875L12.75 4.70156ZM13.3706 7.65188L17.76 6.70969L18.0731 8.20031L13.6875 9.14344L13.3706 7.65188ZM13.9931 10.6116L18.3825 9.66844L19.6294 15.5972L15.24 16.5403L13.9931 10.6116ZM20.25 18.5569L15.8625 19.4944L15.5503 18.0066L19.9378 17.0625L20.25 18.5484C20.25 18.5541 20.25 18.5569 20.25 18.5569ZM9.75 3H5.25C4.85218 3 4.47064 3.15804 4.18934 3.43934C3.90804 3.72064 3.75 4.10218 3.75 4.5V19.5C3.75 19.8978 3.90804 20.2794 4.18934 20.5607C4.47064 20.842 4.85218 21 5.25 21H9.75C10.1478 21 10.5294 20.842 10.8107 20.5607C11.092 20.2794 11.25 19.8978 11.25 19.5V4.5C11.25 4.10218 11.092 3.72064 10.8107 3.43934C10.5294 3.15804 10.1478 3 9.75 3ZM5.25 4.5H9.75V6H5.25V4.5ZM5.25 7.5H9.75V16.5H5.25V7.5ZM9.75 19.5H5.25V18H9.75V19.5Z" fill="black"/>
</svg>
