<svg width="24" height="24" viewBox="0 0 24 24" fill="none" xmlns="http://www.w3.org/2000/svg">
<path d="M13.4419 1.67344C13.3494 1.59657 13.2398 1.54306 13.1224 1.51741C13.0049 1.49177 12.883 1.49474 12.7669 1.52608C12.6508 1.55742 12.544 1.61621 12.4554 1.69749C12.3668 1.77878 12.299 1.88017 12.2578 1.99313L10.1953 7.65656L7.93031 5.46188C7.85425 5.3881 7.76341 5.33128 7.66379 5.29516C7.56417 5.25904 7.45802 5.24444 7.35235 5.25232C7.24667 5.26021 7.14387 5.29039 7.05071 5.34089C6.95755 5.3914 6.87615 5.46107 6.81188 5.54531C4.78125 8.20594 3.75 10.8825 3.75 13.5C3.75 15.688 4.61919 17.7865 6.16637 19.3336C7.71354 20.8808 9.81196 21.75 12 21.75C14.188 21.75 16.2865 20.8808 17.8336 19.3336C19.3808 17.7865 20.25 15.688 20.25 13.5C20.25 7.92656 15.4884 3.375 13.4419 1.67344ZM17.2397 14.3756C17.0452 15.4619 16.5226 16.4625 15.7422 17.2428C14.9618 18.023 13.961 18.5454 12.8747 18.7397C12.8335 18.7467 12.7918 18.7502 12.75 18.75C12.5619 18.75 12.3806 18.6792 12.2422 18.5518C12.1038 18.4244 12.0183 18.2496 12.0028 18.0621C11.9872 17.8746 12.0426 17.6881 12.1581 17.5396C12.2736 17.3911 12.4407 17.2914 12.6262 17.2603C14.1797 16.9987 15.4978 15.6806 15.7612 14.1244C15.7946 13.9282 15.9045 13.7533 16.0667 13.6381C16.229 13.523 16.4304 13.477 16.6266 13.5103C16.8227 13.5436 16.9976 13.6535 17.1128 13.8158C17.228 13.9781 17.2739 14.1794 17.2406 14.3756H17.2397Z" fill="black"/>
</svg>
