<svg width="24" height="24" viewBox="0 0 24 24" fill="none" xmlns="http://www.w3.org/2000/svg">
<path d="M21.75 9C21.7511 10.1226 21.4723 11.2277 20.9386 12.2153C20.405 13.203 19.6335 14.042 18.694 14.6563C17.7544 15.2706 16.6765 15.6409 15.5577 15.7337C14.439 15.8264 13.3148 15.6387 12.2869 15.1875L7.40625 20.8331C7.395 20.8462 7.38187 20.8603 7.36969 20.8725C6.80701 21.4352 6.04387 21.7513 5.24813 21.7513C4.45238 21.7513 3.68924 21.4352 3.12656 20.8725C2.56389 20.3098 2.24778 19.5467 2.24778 18.7509C2.24778 17.9552 2.56389 17.192 3.12656 16.6294C3.13969 16.6172 3.15281 16.6041 3.16687 16.5928L8.8125 11.7131C8.30669 10.5561 8.13525 9.28042 8.31764 8.03087C8.50002 6.78133 9.02894 5.60791 9.84438 4.64371C10.6598 3.67951 11.7291 2.96313 12.9311 2.57582C14.133 2.18852 15.4194 2.14579 16.6444 2.4525C16.7707 2.48415 16.8865 2.54812 16.9806 2.63813C17.0746 2.72813 17.1436 2.84107 17.1808 2.96583C17.218 3.0906 17.222 3.22289 17.1926 3.34969C17.1631 3.4765 17.1012 3.59346 17.0128 3.68906L13.5 7.5L14.0306 9.97031L16.5 10.5L20.3109 6.9825C20.4065 6.89413 20.5235 6.83218 20.6503 6.80272C20.7771 6.77327 20.9094 6.77732 21.0342 6.8145C21.1589 6.85167 21.2719 6.92068 21.3619 7.01474C21.4519 7.10879 21.5158 7.22466 21.5475 7.35093C21.6821 7.89029 21.7501 8.4441 21.75 9Z" fill="black"/>
</svg>
